ply
format ascii 1.0
comment Exported by Aspose.3D 23.2
element vertex 332
property float x
property float y
property float z
property float nx
property float ny
property float nz
property float u
property float v
property uchar red
property uchar green
property uchar blue
element face 320
property list uchar int vertex_index
end_header
0 0 189.54318237304688 0 0 1 0.1353408396244049 -0.9999358654022217 255 255 255
-56.68062973022461 0 189.54318237304688 0 0 1 0.03886719048023224 -0.8211355805397034 255 255 255
-56.50590133666992 -4.447111129760742 189.54318237304688 0 0 1 0.04586218297481537 -0.819440484046936 255 255 255
0 0 -189.54318237304688 0 0 -1 0.19529208540916443 -0.008883506059646606 255 255 255
-56.50590133666992 -4.447111129760742 -189.54318237304688 0 0 -1 0.044743359088897705 -0.12362417578697205 255 255 255
-56.68062973022461 0 -189.54318237304688 0 0 -1 0.03676028549671173 -0.12253054976463318 255 255 255
-56.68062973022461 0 189.54318237304688 -1 0 0 0.03886719048023224 -0.8211355805397034 255 255 255
-56.50590133666992 -4.447111129760742 -189.54318237304688 -0.9969173669815063 -0.07845910638570786 0 0.044743359088897705 -0.12362417578697205 255 255 255
-56.50590133666992 -4.447111129760742 189.54318237304688 -0.9969173669815063 -0.07845910638570786 0 0.04586218297481537 -0.819440484046936 255 255 255
-56.68062973022461 0 -189.54318237304688 -1 0 0 0.03676028549671173 -0.12253054976463318 255 255 255
-55.9827995300293 -8.866805076599121 189.54318237304688 0 0 1 0.05354714393615723 -0.8179289102554321 255 255 255
-55.9827995300293 -8.866805076599121 -189.54318237304688 0 0 -1 0.05300264060497284 -0.12509742379188538 255 255 255
-55.9827995300293 -8.866805076599121 -189.54318237304688 -0.9876883625984192 -0.15643449127674103 0 0.05300264060497284 -0.12509742379188538 255 255 255
-55.9827995300293 -8.866805076599121 189.54318237304688 -0.9876883625984192 -0.15643449127674103 0 0.05354714393615723 -0.8179289102554321 255 255 255
-55.114540100097656 -13.231830596923828 189.54318237304688 0 0 1 0.06187424808740616 -0.8165054321289062 255 255 255
-55.114540100097656 -13.231830596923828 -189.54318237304688 0 0 -1 0.061820656061172485 -0.12659496068954468 255 255 255
-55.114540100097656 -13.231830596923828 -189.54318237304688 -0.972369909286499 -0.23344537615776062 0 0.061820656061172485 -0.12659496068954468 255 255 255
-55.114540100097656 -13.231830596923828 189.54318237304688 -0.972369909286499 -0.23344537615776062 0 0.06187424808740616 -0.8165054321289062 255 255 255
-53.9064826965332 -17.515277862548828 189.54318237304688 0 0 1 0.07083714753389359 -0.8152477145195007 255 255 255
-53.9064826965332 -17.515277862548828 -189.54318237304688 0 0 -1 0.0712597668170929 -0.12796711921691895 255 255 255
-53.9064826965332 -17.515277862548828 -189.54318237304688 -0.9510565400123596 -0.30901700258255005 0 0.0712597668170929 -0.12796711921691895 255 255 255
-53.9064826965332 -17.515277862548828 189.54318237304688 -0.9510565400123596 -0.30901700258255005 0 0.07083714753389359 -0.8152477145195007 255 255 255
-52.36607360839844 -21.690736770629883 189.54318237304688 0 0 1 0.0803651362657547 -0.8141657114028931 255 255 255
-52.36607360839844 -21.690736770629883 -189.54318237304688 0 0 -1 0.0812285989522934 -0.12920168042182922 255 255 255
-52.36607360839844 -21.690736770629883 -189.54318237304688 -0.9238795638084412 -0.3826834559440613 0 0.0812285989522934 -0.12920168042182922 255 255 255
-52.36607360839844 -21.690736770629883 189.54318237304688 -0.9238795638084412 -0.3826834559440613 0 0.0803651362657547 -0.8141657114028931 255 255 255
-50.502811431884766 -25.732467651367188 189.54318237304688 0 0 1 0.09042565524578094 -0.8132320046424866 255 255 255
-50.502811431884766 -25.732467651367188 -189.54318237304688 0 0 -1 0.09169338643550873 -0.13029903173446655 255 255 255
-50.502811431884766 -25.732467651367188 -189.54318237304688 -0.8910065293312073 -0.45399048924446106 0 0.09169338643550873 -0.13029903173446655 255 255 255
-50.502811431884766 -25.732467651367188 189.54318237304688 -0.8910065293312073 -0.45399048924446106 0 0.09042565524578094 -0.8132320046424866 255 255 255
-48.328182220458984 -29.61554718017578 189.54318237304688 0 0 1 0.10088993608951569 -0.8124486207962036 255 255 255
-48.328182220458984 -29.61554718017578 -189.54318237304688 0 0 -1 0.10250801593065262 -0.13131344318389893 255 255 255
-48.328182220458984 -29.61554718017578 -189.54318237304688 -0.8526401519775391 -0.5224985480308533 0 0.10250801593065262 -0.13131344318389893 255 255 255
-48.328182220458984 -29.61554718017578 189.54318237304688 -0.8526401519775391 -0.5224985480308533 0 0.10088993608951569 -0.8124486207962036 255 255 255
-45.8555908203125 -33.3160400390625 189.54318237304688 0 0 1 0.11171796172857285 -0.8117634057998657 255 255 255
-45.8555908203125 -33.3160400390625 -189.54318237304688 0 0 -1 0.11370694637298584 -0.13220137357711792 255 255 255
-45.8555908203125 -33.3160400390625 -189.54318237304688 -0.8090169429779053 -0.5877853035926819 0 0.11370694637298584 -0.13220137357711792 255 255 255
-45.8555908203125 -33.3160400390625 189.54318237304688 -0.8090169429779053 -0.5877853035926819 0 0.11171796172857285 -0.8117634057998657 255 255 255
-43.100284576416016 -36.811126708984375 189.54318237304688 0 0 1 0.12287784367799759 -0.8112447261810303 255 255 255
-43.100284576416016 -36.811126708984375 -189.54318237304688 0 0 -1 0.12521690130233765 -0.13294723629951477 255 255 255
-43.100284576416016 -36.811126708984375 -189.54318237304688 -0.7604058980941772 -0.6494480967521667 0 0.12521690130233765 -0.13294723629951477 255 255 255
-43.100284576416016 -36.811126708984375 189.54318237304688 -0.7604058980941772 -0.6494480967521667 0 0.12287784367799759 -0.8112447261810303 255 255 255
-40.079254150390625 -40.07925796508789 189.54318237304688 0 0 1 0.13433730602264404 -0.8109021186828613 255 255 255
-40.079254150390625 -40.07925796508789 -189.54318237304688 0 0 -1 0.13700422644615173 -0.13356739282608032 255 255 255
-40.079254150390625 -40.07925796508789 -189.54318237304688 -0.7071067690849304 -0.7071068286895752 0 0.13700422644615173 -0.13356739282608032 255 255 255
-40.079254150390625 -40.07925796508789 189.54318237304688 -0.7071067690849304 -0.7071068286895752 0 0.13433730602264404 -0.8109021186828613 255 255 255
-36.81112289428711 -43.10028839111328 189.54318237304688 0 0 1 0.14601555466651917 -0.8107117414474487 255 255 255
-36.81112289428711 -43.10028839111328 -189.54318237304688 0 0 -1 0.1490013748407364 -0.13409584760665894 255 255 255
-36.81112289428711 -43.10028839111328 -189.54318237304688 -0.649448037147522 -0.760405957698822 0 0.1490013748407364 -0.13409584760665894 255 255 255
-36.81112289428711 -43.10028839111328 189.54318237304688 -0.649448037147522 -0.760405957698822 0 0.14601555466651917 -0.8107117414474487 255 255 255
-33.316036224365234 -45.855594635009766 189.54318237304688 0 0 1 0.15787281095981598 -0.8106284141540527 255 255 255
-33.316036224365234 -45.855594635009766 -189.54318237304688 0 0 -1 0.1611780822277069 -0.13454201817512512 255 255 255
-33.316036224365234 -45.855594635009766 -189.54318237304688 -0.5877852439880371 -0.80901700258255 0 0.1611780822277069 -0.13454201817512512 255 255 255
-33.316036224365234 -45.855594635009766 189.54318237304688 -0.5877852439880371 -0.80901700258255 0 0.15787281095981598 -0.8106284141540527 255 255 255
-29.615543365478516 -48.328182220458984 189.54318237304688 0 0 1 0.16978248953819275 -0.810699462890625 255 255 255
-29.615543365478516 -48.328182220458984 -189.54318237304688 0 0 -1 0.17346958816051483 -0.1348339021205902 255 255 255
-29.615543365478516 -48.328182220458984 -189.54318237304688 -0.5224985480308533 -0.8526402115821838 0 0.17346958816051483 -0.1348339021205902 255 255 255
-29.615543365478516 -48.328182220458984 189.54318237304688 -0.5224985480308533 -0.8526402115821838 0 0.16978248953819275 -0.810699462890625 255 255 255
-25.732467651367188 -50.5028076171875 189.54318237304688 0 0 1 0.18169453740119934 -0.8104970455169678 255 255 255
-25.732467651367188 -50.5028076171875 -189.54318237304688 0 0 -1 0.18585605919361115 -0.1349881887435913 255 255 255
-25.732467651367188 -50.5028076171875 -189.54318237304688 -0.45399051904678345 -0.8910065293312073 0 0.18585605919361115 -0.1349881887435913 255 255 255
-25.732467651367188 -50.5028076171875 189.54318237304688 -0.45399051904678345 -0.8910065293312073 0 0.18169453740119934 -0.8104970455169678 255 255 255
-21.690738677978516 -52.36607360839844 189.54318237304688 0 0 1 0.1936054676771164 -0.8100980520248413 255 255 255
-21.690738677978516 -52.36607360839844 -189.54318237304688 0 0 -1 0.1982167661190033 -0.13502487540245056 255 255 255
-21.690738677978516 -52.36607360839844 -189.54318237304688 -0.3826834559440613 -0.9238795042037964 0 0.1982167661190033 -0.13502487540245056 255 255 255
-21.690738677978516 -52.36607360839844 189.54318237304688 -0.3826834559440613 -0.9238795042037964 0 0.1936054676771164 -0.8100980520248413 255 255 255
-17.515274047851562 -53.90647888183594 189.54318237304688 0 0 1 0.20525580644607544 -0.81049644947052 255 255 255
-17.515274047851562 -53.90647888183594 -189.54318237304688 0 0 -1 0.2104671597480774 -0.13491743803024292 255 255 255
-17.515274047851562 -53.90647888183594 -189.54318237304688 -0.3090169429779053 -0.9510565400123596 0 0.2104671597480774 -0.13491743803024292 255 255 255
-17.515274047851562 -53.90647888183594 189.54318237304688 -0.3090169429779053 -0.9510565400123596 0 0.20525580644607544 -0.81049644947052 255 255 255
-13.231825828552246 -55.11454391479492 189.54318237304688 0 0 1 0.21677063405513763 -0.8109971284866333 255 255 255
-13.231825828552246 -55.11454391479492 -189.54318237304688 0 0 -1 0.22256994247436523 -0.1347123086452484 255 255 255
-13.231825828552246 -55.11454391479492 -189.54318237304688 -0.23344528675079346 -0.9723699688911438 0 0.22256994247436523 -0.1347123086452484 255 255 255
-13.231825828552246 -55.11454391479492 189.54318237304688 -0.23344528675079346 -0.9723699688911438 0 0.21677063405513763 -0.8109971284866333 255 255 255
-8.86679744720459 -55.9827995300293 189.54318237304688 0 0 1 0.2281021922826767 -0.8116306066513062 255 255 255
-8.86679744720459 -55.9827995300293 -189.54318237304688 0 0 -1 0.23452241718769073 -0.1344236433506012 255 255 255
-8.86679744720459 -55.9827995300293 -189.54318237304688 -0.1564343422651291 -0.9876883625984192 0 0.23452241718769073 -0.1344236433506012 255 255 255
-8.86679744720459 -55.9827995300293 189.54318237304688 -0.1564343422651291 -0.9876883625984192 0 0.2281021922826767 -0.8116306066513062 255 255 255
-4.447110176086426 -56.50590515136719 189.54318237304688 0 0 1 0.23915021121501923 -0.8124361634254456 255 255 255
-4.447110176086426 -56.50590515136719 -189.54318237304688 0 0 -1 0.24626624584197998 -0.13401198387145996 255 255 255
-4.447110176086426 -56.50590515136719 -189.54318237304688 -0.07845908403396606 -0.9969173669815063 0 0.24626624584197998 -0.13401198387145996 255 255 255
-4.447110176086426 -56.50590515136719 189.54318237304688 -0.07845908403396606 -0.9969173669815063 0 0.23915021121501923 -0.8124361634254456 255 255 255
6.756857601430966E-06 -56.68062210083008 189.54318237304688 0 0 1 0.24982188642024994 -0.8133553862571716 255 255 255
6.756857601430966E-06 -56.68062210083008 -189.54318237304688 0 0 -1 0.25771528482437134 -0.13344445824623108 255 255 255
6.756857601430966E-06 -56.68062210083008 -189.54318237304688 1.1920930376163597E-07 -1 0 0.25771528482437134 -0.13344445824623108 255 255 255
6.756857601430966E-06 -56.68062210083008 189.54318237304688 1.1920930376163597E-07 -1 0 0.24982188642024994 -0.8133553862571716 255 255 255
4.447110176086426 -56.50590515136719 189.54318237304688 0 0 1 0.2600966691970825 -0.8144207000732422 255 255 255
4.447110176086426 -56.50590515136719 -189.54318237304688 0 0 -1 0.26881688833236694 -0.13275277614593506 255 255 255
4.447110176086426 -56.50590515136719 -189.54318237304688 0.07845908403396606 -0.9969173669815063 0 0.26881688833236694 -0.13275277614593506 255 255 255
4.447110176086426 -56.50590515136719 189.54318237304688 0.07845908403396606 -0.9969173669815063 0 0.2600966691970825 -0.8144207000732422 255 255 255
8.86679744720459 -55.9827995300293 189.54318237304688 0 0 1 0.26991188526153564 -0.8155991435050964 255 255 255
8.86679744720459 -55.9827995300293 -189.54318237304688 0 0 -1 0.27951353788375854 -0.1319151520729065 255 255 255
8.86679744720459 -55.9827995300293 -189.54318237304688 0.1564343422651291 -0.9876883625984192 0 0.27951353788375854 -0.1319151520729065 255 255 255
8.86679744720459 -55.9827995300293 189.54318237304688 0.1564343422651291 -0.9876883625984192 0 0.26991188526153564 -0.8155991435050964 255 255 255
13.231825828552246 -55.11454391479492 189.54318237304688 0 0 1 0.2791779637336731 -0.8170472383499146 255 255 255
13.231825828552246 -55.11454391479492 -189.54318237304688 0 0 -1 0.28978341817855835 -0.13093402981758118 255 255 255
13.231825828552246 -55.11454391479492 -189.54318237304688 0.23344528675079346 -0.9723699688911438 0 0.28978341817855835 -0.13093402981758118 255 255 255
13.231825828552246 -55.11454391479492 189.54318237304688 0.23344528675079346 -0.9723699688911438 0 0.2791779637336731 -0.8170472383499146 255 255 255
17.515274047851562 -53.90647888183594 189.54318237304688 0 0 1 0.2879074513912201 -0.8183642625808716 255 255 255
17.515274047851562 -53.90647888183594 -189.54318237304688 0 0 -1 0.29952412843704224 -0.1297922134399414 255 255 255
17.515274047851562 -53.90647888183594 -189.54318237304688 0.3090169429779053 -0.9510565400123596 0 0.29952412843704224 -0.1297922134399414 255 255 255
17.515274047851562 -53.90647888183594 189.54318237304688 0.3090169429779053 -0.9510565400123596 0 0.2879074513912201 -0.8183642625808716 255 255 255
21.690738677978516 -52.36607360839844 189.54318237304688 0 0 1 0.2960055470466614 -0.8200516104698181 255 255 255
21.690738677978516 -52.36607360839844 -189.54318237304688 0 0 -1 0.3087225556373596 -0.12852665781974792 255 255 255
21.690738677978516 -52.36607360839844 -189.54318237304688 0.3826834559440613 -0.9238795042037964 0 0.3087225556373596 -0.12852665781974792 255 255 255
21.690738677978516 -52.36607360839844 189.54318237304688 0.3826834559440613 -0.9238795042037964 0 0.2960055470466614 -0.8200516104698181 255 255 255
25.732467651367188 -50.5028076171875 189.54318237304688 0 0 1 0.3034213185310364 -0.8217623233795166 255 255 255
25.732467651367188 -50.5028076171875 -189.54318237304688 0 0 -1 0.3172896206378937 -0.1270865499973297 255 255 255
25.732467651367188 -50.5028076171875 -189.54318237304688 0.45399051904678345 -0.8910065293312073 0 0.3172896206378937 -0.1270865499973297 255 255 255
25.732467651367188 -50.5028076171875 189.54318237304688 0.45399051904678345 -0.8910065293312073 0 0.3034213185310364 -0.8217623233795166 255 255 255
29.615550994873047 -48.328182220458984 189.54318237304688 0 0 1 0.31008845567703247 -0.8236349821090698 255 255 255
29.615550994873047 -48.328182220458984 -189.54318237304688 0 0 -1 0.32518911361694336 -0.12547996640205383 255 255 255
29.615550994873047 -48.328182220458984 -189.54318237304688 0.5224986672401428 -0.8526401519775391 0 0.32518911361694336 -0.12547996640205383 255 255 255
29.615550994873047 -48.328182220458984 189.54318237304688 0.5224986672401428 -0.8526401519775391 0 0.31008845567703247 -0.8236349821090698 255 255 255
33.31603240966797 -45.85559844970703 189.54318237304688 0 0 1 0.3158782720565796 -0.8257420063018799 255 255 255
33.31603240966797 -45.85559844970703 -189.54318237304688 0 0 -1 0.332383930683136 -0.12370461225509644 255 255 255
33.31603240966797 -45.85559844970703 -189.54318237304688 0.5877851247787476 -0.8090171217918396 0 0.332383930683136 -0.12370461225509644 255 255 255
33.31603240966797 -45.85559844970703 189.54318237304688 0.5877851247787476 -0.8090171217918396 0 0.3158782720565796 -0.8257420063018799 255 255 255
36.81111526489258 -43.10029220581055 189.54318237304688 0 0 1 0.32083702087402344 -0.8283026218414307 255 255 255
36.81111526489258 -43.10029220581055 -189.54318237304688 0 0 -1 0.3388296961784363 -0.12172195315361023 255 255 255
36.81111526489258 -43.10029220581055 -189.54318237304688 0.6494479179382324 -0.7604060769081116 0 0.3388296961784363 -0.12172195315361023 255 255 255
36.81111526489258 -43.10029220581055 189.54318237304688 0.6494479179382324 -0.7604060769081116 0 0.32083702087402344 -0.8283026218414307 255 255 255
40.079254150390625 -40.079261779785156 189.54318237304688 0 0 1 0.32511770725250244 -0.8308643102645874 255 255 255
40.079254150390625 -40.079261779785156 -189.54318237304688 0 0 -1 0.3446934223175049 -0.12045431137084961 255 255 255
40.079254150390625 -40.079261779785156 -189.54318237304688 0.7071067094802856 -0.7071068286895752 0 0.3446934223175049 -0.12045431137084961 255 255 255
40.079254150390625 -40.079261779785156 189.54318237304688 0.7071067094802856 -0.7071068286895752 0 0.32511770725250244 -0.8308643102645874 255 255 255
43.100284576416016 -36.811126708984375 189.54318237304688 0 0 1 0.32906705141067505 -0.8342200517654419 255 255 255
43.100284576416016 -36.811126708984375 -189.54318237304688 0 0 -1 0.3496417999267578 -0.11836093664169312 255 255 255
43.100284576416016 -36.811126708984375 -189.54318237304688 0.7604058980941772 -0.6494480967521667 0 0.3496417999267578 -0.11836093664169312 255 255 255
43.100284576416016 -36.811126708984375 189.54318237304688 0.7604058980941772 -0.6494480967521667 0 0.32906705141067505 -0.8342200517654419 255 255 255
45.8555908203125 -33.3160400390625 189.54318237304688 0 0 1 0.3328167200088501 -0.8373905420303345 255 255 255
45.8555908203125 -33.3160400390625 -189.54318237304688 0 0 -1 0.3545769453048706 -0.11804819107055664 255 255 255
45.8555908203125 -33.3160400390625 -189.54318237304688 0.8090169429779053 -0.5877853035926819 0 0.3545769453048706 -0.11804819107055664 255 255 255
45.8555908203125 -33.3160400390625 189.54318237304688 0.8090169429779053 -0.5877853035926819 0 0.3328167200088501 -0.8373905420303345 255 255 255
48.328182220458984 -29.61554718017578 189.54318237304688 0 0 1 0.3369649648666382 -0.8438639640808105 255 255 255
48.328182220458984 -29.61554718017578 -189.54318237304688 0 0 -1 0.36494457721710205 -0.11546987295150757 255 255 255
48.328182220458984 -29.61554718017578 -189.54318237304688 0.8526401519775391 -0.5224985480308533 0 0.36494457721710205 -0.11546987295150757 255 255 255
48.328182220458984 -29.61554718017578 189.54318237304688 0.8526401519775391 -0.5224985480308533 0 0.3369649648666382 -0.8438639640808105 255 255 255
0 0 189.54318237304688 0 0 1 0.583554744720459 -0.0001144111156463623 255 255 255
48.328182220458984 -29.61554718017578 189.54318237304688 0 0 1 0.7177445292472839 -0.13604900240898132 255 255 255
50.502811431884766 -25.732465744018555 189.54318237304688 0 0 1 0.7093429565429688 -0.14738938212394714 255 255 255
0 0 -189.54318237304688 0 0 -1 0.5477141737937927 -0.9998855590820312 255 255 255
50.502811431884766 -25.732465744018555 -189.54318237304688 0 0 -1 0.7011476755142212 -0.8662109375 255 255 255
48.328182220458984 -29.61554718017578 -189.54318237304688 0 0 -1 0.707364022731781 -0.8755491971969604 255 255 255
48.328182220458984 -29.61554718017578 189.54318237304688 0.8526401519775391 -0.5224985480308533 0 0.7177445292472839 -0.13604900240898132 255 255 255
50.502811431884766 -25.732465744018555 -189.54318237304688 0.891006588935852 -0.45399048924446106 0 0.7011476755142212 -0.8662109375 255 255 255
50.502811431884766 -25.732465744018555 189.54318237304688 0.891006588935852 -0.45399048924446106 0 0.7093429565429688 -0.14738938212394714 255 255 255
48.328182220458984 -29.61554718017578 -189.54318237304688 0.8526401519775391 -0.5224985480308533 0 0.707364022731781 -0.8755491971969604 255 255 255
52.36607360839844 -21.69073486328125 189.54318237304688 0 0 1 0.7042441368103027 -0.14656049013137817 255 255 255
52.36607360839844 -21.69073486328125 -189.54318237304688 0 0 -1 0.6965057849884033 -0.8642666935920715 255 255 255
52.36607360839844 -21.69073486328125 -189.54318237304688 0.9238795638084412 -0.3826833963394165 0 0.6965057849884033 -0.8642666935920715 255 255 255
52.36607360839844 -21.69073486328125 189.54318237304688 0.9238795638084412 -0.3826833963394165 0 0.7042441368103027 -0.14656049013137817 255 255 255
53.9064826965332 -17.51527214050293 189.54318237304688 0 0 1 0.7002627849578857 -0.14894655346870422 255 255 255
53.9064826965332 -17.51527214050293 -189.54318237304688 0 0 -1 0.6925145387649536 -0.8616582751274109 255 255 255
53.9064826965332 -17.51527214050293 -189.54318237304688 0.9510565996170044 -0.3090169131755829 0 0.6925145387649536 -0.8616582751274109 255 255 255
53.9064826965332 -17.51527214050293 189.54318237304688 0.9510565996170044 -0.3090169131755829 0 0.7002627849578857 -0.14894655346870422 255 255 255
55.114540100097656 -13.231836318969727 189.54318237304688 0 0 1 0.6954613327980042 -0.15086737275123596 255 255 255
55.114540100097656 -13.231836318969727 -189.54318237304688 0 0 -1 0.6884042024612427 -0.8588883876800537 255 255 255
55.114540100097656 -13.231836318969727 -189.54318237304688 0.972369909286499 -0.23344546556472778 0 0.6884042024612427 -0.8588883876800537 255 255 255
55.114540100097656 -13.231836318969727 189.54318237304688 0.972369909286499 -0.23344546556472778 0 0.6954613327980042 -0.15086737275123596 255 255 255
55.98279571533203 -8.866806983947754 189.54318237304688 0 0 1 0.6896288394927979 -0.1511106789112091 255 255 255
55.98279571533203 -8.866806983947754 -189.54318237304688 0 0 -1 0.6839169859886169 -0.8568400144577026 255 255 255
55.98279571533203 -8.866806983947754 -189.54318237304688 0.9876883625984192 -0.1564345359802246 0 0.6839169859886169 -0.8568400144577026 255 255 255
55.98279571533203 -8.866806983947754 189.54318237304688 0.9876883625984192 -0.1564345359802246 0 0.6896288394927979 -0.1511106789112091 255 255 255
56.50590133666992 -4.447113037109375 189.54318237304688 0 0 1 0.6834256649017334 -0.15245920419692993 255 255 255
56.50590133666992 -4.447113037109375 -189.54318237304688 0 0 -1 0.6784350275993347 -0.8551555871963501 255 255 255
56.50590133666992 -4.447113037109375 -189.54318237304688 0.9969173669815063 -0.07845914363861084 0 0.6784350275993347 -0.8551555871963501 255 255 255
56.50590133666992 -4.447113037109375 189.54318237304688 0.9969173669815063 -0.07845914363861084 0 0.6834256649017334 -0.15245920419692993 255 255 255
56.68062973022461 0 189.54318237304688 0 0 1 0.6766704320907593 -0.1540876030921936 255 255 255
56.68062973022461 0 -189.54318237304688 0 0 -1 0.6722868084907532 -0.8531878590583801 255 255 255
56.68062973022461 0 -189.54318237304688 1 0 0 0.6722868084907532 -0.8531878590583801 255 255 255
56.68062973022461 0 189.54318237304688 1 0 0 0.6766704320907593 -0.1540876030921936 255 255 255
56.50590133666992 4.447113037109375 189.54318237304688 0 0 1 0.6693176031112671 -0.1556755006313324 255 255 255
56.50590133666992 4.447113037109375 -189.54318237304688 0 0 -1 0.6653995513916016 -0.851317286491394 255 255 255
56.50590133666992 4.447113037109375 -189.54318237304688 0.9969173669815063 0.07845914363861084 0 0.6653995513916016 -0.851317286491394 255 255 255
56.50590133666992 4.447113037109375 189.54318237304688 0.9969173669815063 0.07845914363861084 0 0.6693176031112671 -0.1556755006313324 255 255 255
55.98279571533203 8.866806983947754 189.54318237304688 0 0 1 0.6613290905952454 -0.1572151482105255 255 255 255
55.98279571533203 8.866806983947754 -189.54318237304688 0 0 -1 0.6578093767166138 -0.8495721817016602 255 255 255
55.98279571533203 8.866806983947754 -189.54318237304688 0.9876883625984192 0.1564345359802246 0 0.6578093767166138 -0.8495721817016602 255 255 255
55.98279571533203 8.866806983947754 189.54318237304688 0.9876883625984192 0.1564345359802246 0 0.6613290905952454 -0.1572151482105255 255 255 255
55.114540100097656 13.231836318969727 189.54318237304688 0 0 1 0.6527725458145142 -0.15853607654571533 255 255 255
55.114540100097656 13.231836318969727 -189.54318237304688 0 0 -1 0.6495590209960938 -0.8479673862457275 255 255 255
55.114540100097656 13.231836318969727 -189.54318237304688 0.972369909286499 0.23344546556472778 0 0.6495590209960938 -0.8479673862457275 255 255 255
55.114540100097656 13.231836318969727 189.54318237304688 0.972369909286499 0.23344546556472778 0 0.6527725458145142 -0.15853607654571533 255 255 255
53.9064826965332 17.51527214050293 189.54318237304688 0 0 1 0.6436505317687988 -0.15975967049598694 255 255 255
53.9064826965332 17.51527214050293 -189.54318237304688 0 0 -1 0.6407026648521423 -0.8465076684951782 255 255 255
53.9064826965332 17.51527214050293 -189.54318237304688 0.9510565996170044 0.3090169131755829 0 0.6407026648521423 -0.8465076684951782 255 255 255
53.9064826965332 17.51527214050293 189.54318237304688 0.9510565996170044 0.3090169131755829 0 0.6436505317687988 -0.15975967049598694 255 255 255
52.36607360839844 21.69073486328125 189.54318237304688 0 0 1 0.6340146064758301 -0.160795658826828 255 255 255
52.36607360839844 21.69073486328125 -189.54318237304688 0 0 -1 0.6312724351882935 -0.8452115058898926 255 255 255
52.36607360839844 21.69073486328125 -189.54318237304688 0.9238795638084412 0.3826833963394165 0 0.6312724351882935 -0.8452115058898926 255 255 255
52.36607360839844 21.69073486328125 189.54318237304688 0.9238795638084412 0.3826833963394165 0 0.6340146064758301 -0.160795658826828 255 255 255
50.502811431884766 25.732465744018555 189.54318237304688 0 0 1 0.6239026188850403 -0.1617022454738617 255 255 255
50.502811431884766 25.732465744018555 -189.54318237304688 0 0 -1 0.6213356256484985 -0.8440197706222534 255 255 255
50.502811431884766 25.732465744018555 -189.54318237304688 0.891006588935852 0.45399048924446106 0 0.6213356256484985 -0.8440197706222534 255 255 255
50.502811431884766 25.732465744018555 189.54318237304688 0.891006588935852 0.45399048924446106 0 0.6239026188850403 -0.1617022454738617 255 255 255
48.328182220458984 29.61554718017578 189.54318237304688 0 0 1 0.613364577293396 -0.1624741554260254 255 255 255
48.328182220458984 29.61554718017578 -189.54318237304688 0 0 -1 0.610908567905426 -0.8429968953132629 255 255 255
48.328182220458984 29.61554718017578 -189.54318237304688 0.8526401519775391 0.5224985480308533 0 0.610908567905426 -0.8429968953132629 255 255 255
48.328182220458984 29.61554718017578 189.54318237304688 0.8526401519775391 0.5224985480308533 0 0.613364577293396 -0.1624741554260254 255 255 255
45.8555908203125 33.3160400390625 189.54318237304688 0 0 1 0.6024378538131714 -0.16309642791748047 255 255 255
45.8555908203125 33.3160400390625 -189.54318237304688 0 0 -1 0.6000818610191345 -0.8420864939689636 255 255 255
45.8555908203125 33.3160400390625 -189.54318237304688 0.8090169429779053 0.5877853035926819 0 0.6000818610191345 -0.8420864939689636 255 255 255
45.8555908203125 33.3160400390625 189.54318237304688 0.8090169429779053 0.5877853035926819 0 0.6024378538131714 -0.16309642791748047 255 255 255
43.100284576416016 36.811126708984375 189.54318237304688 0 0 1 0.5911827683448792 -0.16354793310165405 255 255 255
43.100284576416016 36.811126708984375 -189.54318237304688 0 0 -1 0.5888650417327881 -0.8413305282592773 255 255 255
43.100284576416016 36.811126708984375 -189.54318237304688 0.7604058980941772 0.6494480967521667 0 0.5888650417327881 -0.8413305282592773 255 255 255
43.100284576416016 36.811126708984375 189.54318237304688 0.7604058980941772 0.6494480967521667 0 0.5911827683448792 -0.16354793310165405 255 255 255
40.079254150390625 40.079261779785156 189.54318237304688 0 0 1 0.5796728730201721 -0.16388514637947083 255 255 255
40.079254150390625 40.079261779785156 -189.54318237304688 0 0 -1 0.5773061513900757 -0.8406634330749512 255 255 255
40.079254150390625 40.079261779785156 -189.54318237304688 0.7071067094802856 0.7071068286895752 0 0.5773061513900757 -0.8406634330749512 255 255 255
40.079254150390625 40.079261779785156 189.54318237304688 0.7071067094802856 0.7071068286895752 0 0.5796728730201721 -0.16388514637947083 255 255 255
36.81111526489258 43.10029220581055 189.54318237304688 0 0 1 0.5679399371147156 -0.16407907009124756 255 255 255
36.81111526489258 43.10029220581055 -189.54318237304688 0 0 -1 0.565514087677002 -0.8401167392730713 255 255 255
36.81111526489258 43.10029220581055 -189.54318237304688 0.6494479179382324 0.7604060769081116 0 0.565514087677002 -0.8401167392730713 255 255 255
36.81111526489258 43.10029220581055 189.54318237304688 0.6494479179382324 0.7604060769081116 0 0.5679399371147156 -0.16407907009124756 255 255 255
33.31603240966797 45.85559844970703 189.54318237304688 0 0 1 0.5560491681098938 -0.1641918420791626 255 255 255
33.31603240966797 45.85559844970703 -189.54318237304688 0 0 -1 0.5535373091697693 -0.8396952152252197 255 255 255
33.31603240966797 45.85559844970703 -189.54318237304688 0.5877851247787476 0.8090171217918396 0 0.5535373091697693 -0.8396952152252197 255 255 255
33.31603240966797 45.85559844970703 189.54318237304688 0.5877851247787476 0.8090171217918396 0 0.5560491681098938 -0.1641918420791626 255 255 255
29.615535736083984 48.32818603515625 189.54318237304688 0 0 1 0.5440611839294434 -0.1641644537448883 255 255 255
29.615535736083984 48.32818603515625 -189.54318237304688 0 0 -1 0.5414517521858215 -0.8394055366516113 255 255 255
29.615535736083984 48.32818603515625 -189.54318237304688 0.522498369216919 0.8526403307914734 0 0.5414517521858215 -0.8394055366516113 255 255 255
29.615535736083984 48.32818603515625 189.54318237304688 0.522498369216919 0.8526403307914734 0 0.5440611839294434 -0.1641644537448883 255 255 255
25.732454299926758 50.50281524658203 189.54318237304688 0 0 1 0.532095193862915 -0.16404053568840027 255 255 255
25.732454299926758 50.50281524658203 -189.54318237304688 0 0 -1 0.5293138027191162 -0.8392370939254761 255 255 255
25.732454299926758 50.50281524658203 -189.54318237304688 0.45399031043052673 0.8910066485404968 0 0.5293138027191162 -0.8392370939254761 255 255 255
25.732454299926758 50.50281524658203 189.54318237304688 0.45399031043052673 0.8910066485404968 0 0.532095193862915 -0.16404053568840027 255 255 255
21.69072151184082 52.36607360839844 189.54318237304688 0 0 1 0.5201884508132935 -0.16399076581001282 255 255 255
21.69072151184082 52.36607360839844 -189.54318237304688 0 0 -1 0.5171651244163513 -0.8392065763473511 255 255 255
21.69072151184082 52.36607360839844 -189.54318237304688 0.3826831877231598 0.9238796830177307 0 0.5171651244163513 -0.8392065763473511 255 255 255
21.69072151184082 52.36607360839844 189.54318237304688 0.3826831877231598 0.9238796830177307 0 0.5201884508132935 -0.16399076581001282 255 255 255
17.515289306640625 53.90647506713867 189.54318237304688 0 0 1 0.5083637237548828 -0.16395094990730286 255 255 255
17.515289306640625 53.90647506713867 -189.54318237304688 0 0 -1 0.5051673650741577 -0.8392276167869568 255 255 255
17.515289306640625 53.90647506713867 -189.54318237304688 0.30901721119880676 0.9510564804077148 0 0.5051673650741577 -0.8392276167869568 255 255 255
17.515289306640625 53.90647506713867 189.54318237304688 0.30901721119880676 0.9510564804077148 0 0.5083637237548828 -0.16395094990730286 255 255 255
13.231839179992676 55.11453628540039 189.54318237304688 0 0 1 0.49664101004600525 -0.16413640975952148 255 255 255
13.231839179992676 55.11453628540039 -189.54318237304688 0 0 -1 0.49328047037124634 -0.8393155336380005 255 255 255
13.231839179992676 55.11453628540039 -189.54318237304688 0.23344554007053375 0.972369909286499 0 0.49328047037124634 -0.8393155336380005 255 255 255
13.231839179992676 55.11453628540039 189.54318237304688 0.23344554007053375 0.972369909286499 0 0.49664101004600525 -0.16413640975952148 255 255 255
8.866811752319336 55.9827995300293 189.54318237304688 0 0 1 0.4853428602218628 -0.1637679934501648 255 255 255
8.866811752319336 55.9827995300293 -189.54318237304688 0 0 -1 0.4815661609172821 -0.8394817113876343 255 255 255
8.866811752319336 55.9827995300293 -189.54318237304688 0.15643461048603058 0.9876883625984192 0 0.4815661609172821 -0.8394817113876343 255 255 255
8.866811752319336 55.9827995300293 189.54318237304688 0.15643461048603058 0.9876883625984192 0 0.4853428602218628 -0.1637679934501648 255 255 255
4.447113513946533 56.505897521972656 189.54318237304688 0 0 1 0.4741271734237671 -0.16316857933998108 255 255 255
4.447113513946533 56.505897521972656 -189.54318237304688 0 0 -1 0.47014641761779785 -0.8396631479263306 255 255 255
4.447113513946533 56.505897521972656 -189.54318237304688 0.07845915108919144 0.9969173669815063 0 0.47014641761779785 -0.8396631479263306 255 255 255
4.447113513946533 56.505897521972656 189.54318237304688 0.07845915108919144 0.9969173669815063 0 0.4741271734237671 -0.16316857933998108 255 255 255
3.378428800715483E-06 56.68062973022461 189.54318237304688 0 0 1 0.46323633193969727 -0.1622677445411682 255 255 255
3.378428800715483E-06 56.68062973022461 -189.54318237304688 0 0 -1 0.45909976959228516 -0.8398092985153198 255 255 255
3.378428800715483E-06 56.68062973022461 -189.54318237304688 5.960464477539063E-08 1 0 0.45909976959228516 -0.8398092985153198 255 255 255
3.378428800715483E-06 56.68062973022461 189.54318237304688 5.960464477539063E-08 1 0 0.46323633193969727 -0.1622677445411682 255 255 255
-4.447106838226318 56.50590133666992 189.54318237304688 0 0 1 0.4527030289173126 -0.16145023703575134 255 255 255
-4.447106838226318 56.50590133666992 -189.54318237304688 0 0 -1 0.4485987424850464 -0.839682400226593 255 255 255
-4.447106838226318 56.50590133666992 -189.54318237304688 -0.07845903187990189 0.9969173669815063 0 0.4485987424850464 -0.839682400226593 255 255 255
-4.447106838226318 56.50590133666992 189.54318237304688 -0.07845903187990189 0.9969173669815063 0 0.4527030289173126 -0.16145023703575134 255 255 255
-8.86679744720459 55.9827995300293 189.54318237304688 0 0 1 0.44255051016807556 -0.16041478514671326 255 255 255
-8.86679744720459 55.9827995300293 -189.54318237304688 0 0 -1 0.43860653042793274 -0.839902400970459 255 255 255
-8.86679744720459 55.9827995300293 -189.54318237304688 -0.1564343422651291 0.9876883625984192 0 0.43860653042793274 -0.839902400970459 255 255 255
-8.86679744720459 55.9827995300293 189.54318237304688 -0.1564343422651291 0.9876883625984192 0 0.44255051016807556 -0.16041478514671326 255 255 255
-13.231825828552246 55.11454391479492 189.54318237304688 0 0 1 0.43286898732185364 -0.15924525260925293 255 255 255
-13.231825828552246 55.11454391479492 -189.54318237304688 0 0 -1 0.42884135246276855 -0.8407368659973145 255 255 255
-13.231825828552246 55.11454391479492 -189.54318237304688 -0.23344528675079346 0.9723699688911438 0 0.42884135246276855 -0.8407368659973145 255 255 255
-13.231825828552246 55.11454391479492 189.54318237304688 -0.23344528675079346 0.9723699688911438 0 0.43286898732185364 -0.15924525260925293 255 255 255
-17.515274047851562 53.90647888183594 189.54318237304688 0 0 1 0.42375192046165466 -0.15797218680381775 255 255 255
-17.515274047851562 53.90647888183594 -189.54318237304688 0 0 -1 0.4196026921272278 -0.8416955471038818 255 255 255
-17.515274047851562 53.90647888183594 -189.54318237304688 -0.3090169429779053 0.9510565400123596 0 0.4196026921272278 -0.8416955471038818 255 255 255
-17.515274047851562 53.90647888183594 189.54318237304688 -0.3090169429779053 0.9510565400123596 0 0.42375192046165466 -0.15797218680381775 255 255 255
-21.690738677978516 52.36607360839844 189.54318237304688 0 0 1 0.415205180644989 -0.15666693449020386 255 255 255
-21.690738677978516 52.36607360839844 -189.54318237304688 0 0 -1 0.41084322333335876 -0.8428893089294434 255 255 255
-21.690738677978516 52.36607360839844 -189.54318237304688 -0.3826834559440613 0.9238795042037964 0 0.41084322333335876 -0.8428893089294434 255 255 255
-21.690738677978516 52.36607360839844 189.54318237304688 -0.3826834559440613 0.9238795042037964 0 0.415205180644989 -0.15666693449020386 255 255 255
-25.732467651367188 50.5028076171875 189.54318237304688 0 0 1 0.40727823972702026 -0.15518584847450256 255 255 255
-25.732467651367188 50.5028076171875 -189.54318237304688 0 0 -1 0.4024217128753662 -0.8441467881202698 255 255 255
-25.732467651367188 50.5028076171875 -189.54318237304688 -0.45399051904678345 0.8910065293312073 0 0.4024217128753662 -0.8441467881202698 255 255 255
-25.732467651367188 50.5028076171875 189.54318237304688 -0.45399051904678345 0.8910065293312073 0 0.40727823972702026 -0.15518584847450256 255 255 255
-29.615550994873047 48.328182220458984 189.54318237304688 0 0 1 0.4000858664512634 -0.15347182750701904 255 255 255
-29.615550994873047 48.328182220458984 -189.54318237304688 0 0 -1 0.39443546533584595 -0.8460566401481628 255 255 255
-29.615550994873047 48.328182220458984 -189.54318237304688 -0.5224986672401428 0.8526401519775391 0 0.39443546533584595 -0.8460566401481628 255 255 255
-29.615550994873047 48.328182220458984 189.54318237304688 -0.5224986672401428 0.8526401519775391 0 0.4000858664512634 -0.15347182750701904 255 255 255
-33.3160400390625 45.8555908203125 189.54318237304688 0 0 1 0.39358723163604736 -0.15187987685203552 255 255 255
-33.3160400390625 45.8555908203125 -189.54318237304688 0 0 -1 0.3873365521430969 -0.8479242324829102 255 255 255
-33.3160400390625 45.8555908203125 -189.54318237304688 -0.5877853035926819 0.8090169429779053 0 0.3873365521430969 -0.8479242324829102 255 255 255
-33.3160400390625 45.8555908203125 189.54318237304688 -0.5877853035926819 0.8090169429779053 0 0.39358723163604736 -0.15187987685203552 255 255 255
-36.81113052368164 43.100284576416016 189.54318237304688 0 0 1 0.38774245977401733 -0.14966335892677307 255 255 255
-36.81113052368164 43.100284576416016 -189.54318237304688 0 0 -1 0.3813219964504242 -0.8498694896697998 255 255 255
-36.81113052368164 43.100284576416016 -189.54318237304688 -0.6494481563568115 0.7604058980941772 0 0.3813219964504242 -0.8498694896697998 255 255 255
-36.81113052368164 43.100284576416016 189.54318237304688 -0.6494481563568115 0.7604058980941772 0 0.38774245977401733 -0.14966335892677307 255 255 255
-40.07926559448242 40.07925033569336 189.54318237304688 0 0 1 0.38249847292900085 -0.14660826325416565 255 255 255
-40.07926559448242 40.07925033569336 -189.54318237304688 0 0 -1 0.3754754662513733 -0.8523791432380676 255 255 255
-40.07926559448242 40.07925033569336 -189.54318237304688 -0.7071069478988647 0.7071066498756409 0 0.3754754662513733 -0.8523791432380676 255 255 255
-40.07926559448242 40.07925033569336 189.54318237304688 -0.7071069478988647 0.7071066498756409 0 0.38249847292900085 -0.14660826325416565 255 255 255
-43.10029602050781 36.81111526489258 189.54318237304688 0 0 1 0.37781044840812683 -0.14384916424751282 255 255 255
-43.10029602050781 36.81111526489258 -189.54318237304688 0 0 -1 0.3701614737510681 -0.8558940887451172 255 255 255
-43.10029602050781 36.81111526489258 -189.54318237304688 -0.7604061365127563 0.6494479179382324 0 0.3701614737510681 -0.8558940887451172 255 255 255
-43.10029602050781 36.81111526489258 189.54318237304688 -0.7604061365127563 0.6494479179382324 0 0.37781044840812683 -0.14384916424751282 255 255 255
-45.85559844970703 33.3160285949707 189.54318237304688 0 0 1 0.3731672763824463 -0.14076679944992065 255 255 255
-45.85559844970703 33.3160285949707 -189.54318237304688 0 0 -1 0.3658653497695923 -0.8580014705657959 255 255 255
-45.85559844970703 33.3160285949707 -189.54318237304688 -0.8090171217918396 0.5877850651741028 0 0.3658653497695923 -0.8580014705657959 255 255 255
-45.85559844970703 33.3160285949707 189.54318237304688 -0.8090171217918396 0.5877850651741028 0 0.3731672763824463 -0.14076679944992065 255 255 255
-48.32817459106445 29.61556053161621 189.54318237304688 0 0 1 0.36743879318237305 -0.13088363409042358 255 255 255
-48.32817459106445 29.61556053161621 -189.54318237304688 0 0 -1 0.36130857467651367 -0.8608726263046265 255 255 255
-48.32817459106445 29.61556053161621 -189.54318237304688 -0.8526400327682495 0.5224987864494324 0 0.36130857467651367 -0.8608726263046265 255 255 255
-48.32817459106445 29.61556053161621 189.54318237304688 -0.8526400327682495 0.5224987864494324 0 0.36743879318237305 -0.13088363409042358 255 255 255
-48.32817459106445 29.61556053161621 189.54318237304688 0 0 1 0.006139382719993591 -0.8402267694473267 255 255 255
-50.502803802490234 25.73247718811035 189.54318237304688 0 0 1 0.010728582739830017 -0.8340586423873901 255 255 255
-50.502803802490234 25.73247718811035 -189.54318237304688 0 0 -1 0.35623878240585327 -0.8639353513717651 255 255 255
-48.32817459106445 29.61556053161621 189.54318237304688 -0.8526400327682495 0.5224987864494324 0 0.006139382719993591 -0.8402267694473267 255 255 255
-50.502803802490234 25.73247718811035 -189.54318237304688 -0.8910064101219177 0.4539906680583954 0 7.265806198120117E-05 -0.10274314880371094 255 255 255
-50.502803802490234 25.73247718811035 189.54318237304688 -0.8910064101219177 0.4539906680583954 0 0.010728582739830017 -0.8340586423873901 255 255 255
-50.502803802490234 25.73247718811035 -189.54318237304688 -0.8910064101219177 0.4539906680583954 0 0.35623878240585327 -0.8639353513717651 255 255 255
-52.36606979370117 21.690746307373047 189.54318237304688 0 0 1 0.014614671468734741 -0.8331779837608337 255 255 255
-52.36606979370117 21.690746307373047 -189.54318237304688 0 0 -1 0.008663594722747803 -0.11299419403076172 255 255 255
-50.502803802490234 25.73247718811035 -189.54318237304688 0 0 -1 7.265806198120117E-05 -0.10274314880371094 255 255 255
-52.36606979370117 21.690746307373047 -189.54318237304688 -0.9238795042037964 0.3826836049556732 0 0.008663594722747803 -0.11299419403076172 255 255 255
-52.36606979370117 21.690746307373047 189.54318237304688 -0.9238795042037964 0.3826836049556732 0 0.014614671468734741 -0.8331779837608337 255 255 255
-53.90647888183594 17.51528549194336 189.54318237304688 0 0 1 0.018328383564949036 -0.8303685188293457 255 255 255
-53.90647888183594 17.51528549194336 -189.54318237304688 0 0 -1 0.014252707362174988 -0.11481648683547974 255 255 255
-53.90647888183594 17.51528549194336 -189.54318237304688 -0.9510564804077148 0.3090171217918396 0 0.014252707362174988 -0.11481648683547974 255 255 255
-53.90647888183594 17.51528549194336 189.54318237304688 -0.9510564804077148 0.3090171217918396 0 0.018328383564949036 -0.8303685188293457 255 255 255
-55.114540100097656 13.231836318969727 189.54318237304688 0 0 1 0.02245241403579712 -0.8279527425765991 255 255 255
-55.114540100097656 13.231836318969727 -189.54318237304688 0 0 -1 0.018875494599342346 -0.11727362871170044 255 255 255
-55.114540100097656 13.231836318969727 -189.54318237304688 -0.972369909286499 0.23344546556472778 0 0.018875494599342346 -0.11727362871170044 255 255 255
-55.114540100097656 13.231836318969727 189.54318237304688 -0.972369909286499 0.23344546556472778 0 0.02245241403579712 -0.8279527425765991 255 255 255
-55.98279571533203 8.866806983947754 189.54318237304688 0 0 1 0.027150079607963562 -0.8255242109298706 255 255 255
-55.98279571533203 8.866806983947754 -189.54318237304688 0 0 -1 0.023519307374954224 -0.12052762508392334 255 255 255
-55.98279571533203 8.866806983947754 -189.54318237304688 -0.9876883625984192 0.1564345359802246 0 0.023519307374954224 -0.12052762508392334 255 255 255
-55.98279571533203 8.866806983947754 189.54318237304688 -0.9876883625984192 0.1564345359802246 0 0.027150079607963562 -0.8255242109298706 255 255 255
-56.50590133666992 4.447113037109375 189.54318237304688 0 0 1 0.032686084508895874 -0.8229395151138306 255 255 255
-56.50590133666992 4.447113037109375 -189.54318237304688 0 0 -1 0.029810398817062378 -0.12127909064292908 255 255 255
-56.50590133666992 4.447113037109375 -189.54318237304688 -0.9969173669815063 0.07845914363861084 0 0.029810398817062378 -0.12127909064292908 255 255 255
-56.50590133666992 4.447113037109375 189.54318237304688 -0.9969173669815063 0.07845914363861084 0 0.032686084508895874 -0.8229395151138306 255 255 255
3 0 1 2
3 3 4 5
3 6 7 8
3 7 6 9
3 0 2 10
3 3 11 4
3 8 12 13
3 12 8 7
3 0 10 14
3 3 15 11
3 13 16 17
3 16 13 12
3 0 14 18
3 3 19 15
3 17 20 21
3 20 17 16
3 0 18 22
3 3 23 19
3 21 24 25
3 24 21 20
3 0 22 26
3 3 27 23
3 25 28 29
3 28 25 24
3 0 26 30
3 3 31 27
3 29 32 33
3 32 29 28
3 0 30 34
3 3 35 31
3 33 36 37
3 36 33 32
3 0 34 38
3 3 39 35
3 37 40 41
3 40 37 36
3 0 38 42
3 3 43 39
3 41 44 45
3 44 41 40
3 0 42 46
3 3 47 43
3 45 48 49
3 48 45 44
3 0 46 50
3 3 51 47
3 49 52 53
3 52 49 48
3 0 50 54
3 3 55 51
3 53 56 57
3 56 53 52
3 0 54 58
3 3 59 55
3 57 60 61
3 60 57 56
3 0 58 62
3 3 63 59
3 61 64 65
3 64 61 60
3 0 62 66
3 3 67 63
3 65 68 69
3 68 65 64
3 0 66 70
3 3 71 67
3 69 72 73
3 72 69 68
3 0 70 74
3 3 75 71
3 73 76 77
3 76 73 72
3 0 74 78
3 3 79 75
3 77 80 81
3 80 77 76
3 0 78 82
3 3 83 79
3 81 84 85
3 84 81 80
3 0 82 86
3 3 87 83
3 85 88 89
3 88 85 84
3 0 86 90
3 3 91 87
3 89 92 93
3 92 89 88
3 0 90 94
3 3 95 91
3 93 96 97
3 96 93 92
3 0 94 98
3 3 99 95
3 97 100 101
3 100 97 96
3 0 98 102
3 3 103 99
3 101 104 105
3 104 101 100
3 0 102 106
3 3 107 103
3 105 108 109
3 108 105 104
3 0 106 110
3 3 111 107
3 109 112 113
3 112 109 108
3 0 110 114
3 3 115 111
3 113 116 117
3 116 113 112
3 0 114 118
3 3 119 115
3 117 120 121
3 120 117 116
3 0 118 122
3 3 123 119
3 121 124 125
3 124 121 120
3 0 122 126
3 3 127 123
3 125 128 129
3 128 125 124
3 0 126 130
3 3 131 127
3 129 132 133
3 132 129 128
3 0 130 134
3 3 135 131
3 133 136 137
3 136 133 132
3 138 139 140
3 141 142 143
3 144 145 146
3 145 144 147
3 138 140 148
3 141 149 142
3 146 150 151
3 150 146 145
3 138 148 152
3 141 153 149
3 151 154 155
3 154 151 150
3 138 152 156
3 141 157 153
3 155 158 159
3 158 155 154
3 138 156 160
3 141 161 157
3 159 162 163
3 162 159 158
3 138 160 164
3 141 165 161
3 163 166 167
3 166 163 162
3 138 164 168
3 141 169 165
3 167 170 171
3 170 167 166
3 138 168 172
3 141 173 169
3 171 174 175
3 174 171 170
3 138 172 176
3 141 177 173
3 175 178 179
3 178 175 174
3 138 176 180
3 141 181 177
3 179 182 183
3 182 179 178
3 138 180 184
3 141 185 181
3 183 186 187
3 186 183 182
3 138 184 188
3 141 189 185
3 187 190 191
3 190 187 186
3 138 188 192
3 141 193 189
3 191 194 195
3 194 191 190
3 138 192 196
3 141 197 193
3 195 198 199
3 198 195 194
3 138 196 200
3 141 201 197
3 199 202 203
3 202 199 198
3 138 200 204
3 141 205 201
3 203 206 207
3 206 203 202
3 138 204 208
3 141 209 205
3 207 210 211
3 210 207 206
3 138 208 212
3 141 213 209
3 211 214 215
3 214 211 210
3 138 212 216
3 141 217 213
3 215 218 219
3 218 215 214
3 138 216 220
3 141 221 217
3 219 222 223
3 222 219 218
3 138 220 224
3 141 225 221
3 223 226 227
3 226 223 222
3 138 224 228
3 141 229 225
3 227 230 231
3 230 227 226
3 138 228 232
3 141 233 229
3 231 234 235
3 234 231 230
3 138 232 236
3 141 237 233
3 235 238 239
3 238 235 234
3 138 236 240
3 141 241 237
3 239 242 243
3 242 239 238
3 138 240 244
3 141 245 241
3 243 246 247
3 246 243 242
3 138 244 248
3 141 249 245
3 247 250 251
3 250 247 246
3 138 248 252
3 141 253 249
3 251 254 255
3 254 251 250
3 138 252 256
3 141 257 253
3 255 258 259
3 258 255 254
3 138 256 260
3 141 261 257
3 259 262 263
3 262 259 258
3 138 260 264
3 141 265 261
3 263 266 267
3 266 263 262
3 138 264 268
3 141 269 265
3 267 270 271
3 270 267 266
3 138 268 272
3 141 273 269
3 271 274 275
3 274 271 270
3 138 272 276
3 141 277 273
3 275 278 279
3 278 275 274
3 138 276 280
3 141 281 277
3 279 282 283
3 282 279 278
3 138 280 284
3 141 285 281
3 283 286 287
3 286 283 282
3 138 284 288
3 141 289 285
3 287 290 291
3 290 287 286
3 138 288 292
3 141 293 289
3 291 294 295
3 294 291 290
3 138 292 296
3 141 297 293
3 295 298 299
3 298 295 294
3 138 296 300
3 141 301 297
3 299 302 303
3 302 299 298
3 0 304 305
3 141 306 301
3 307 308 309
3 310 303 302
3 0 305 311
3 3 312 313
3 309 314 315
3 314 309 308
3 0 311 316
3 3 317 312
3 315 318 319
3 318 315 314
3 0 316 320
3 3 321 317
3 319 322 323
3 322 319 318
3 0 320 324
3 3 325 321
3 323 326 327
3 326 323 322
3 0 324 328
3 3 329 325
3 327 330 331
3 330 327 326
3 0 328 1
3 3 5 329
3 331 9 6
3 9 331 330
